<svg width="39" height="42" viewBox="0 0 39 42" fill="none" xmlns="http://www.w3.org/2000/svg">
<path d="M4.60028 24.8232C4.24072 24.8244 3.88819 24.7236 3.58365 24.5325C3.27911 24.3413 3.03506 24.0677 2.87986 23.7433C2.72465 23.419 2.66466 23.0572 2.70685 22.7002C2.74905 22.3431 2.8917 22.0053 3.11822 21.7261L21.929 2.3453C22.0701 2.18242 22.2624 2.07236 22.4743 2.03318C22.6862 1.99399 22.9051 2.02801 23.0951 2.12964C23.2851 2.23128 23.435 2.3945 23.52 2.59251C23.605 2.79052 23.6202 3.01155 23.563 3.21933L19.9149 14.6578C19.8073 14.9457 19.7712 15.2554 19.8096 15.5603C19.848 15.8653 19.9599 16.1563 20.1355 16.4086C20.3111 16.6608 20.5453 16.8667 20.818 17.0085C21.0906 17.1503 21.3936 17.2239 21.701 17.2229H35.0015C35.3611 17.2217 35.7136 17.3225 36.0181 17.5137C36.3227 17.7048 36.5667 17.9785 36.7219 18.3028C36.8771 18.6271 36.9371 18.9889 36.8949 19.3459C36.8527 19.703 36.7101 20.0408 36.4836 20.32L17.6728 39.7008C17.5317 39.8637 17.3394 39.9737 17.1275 40.0129C16.9156 40.0521 16.6967 40.0181 16.5067 39.9165C16.3167 39.8148 16.1668 39.6516 16.0818 39.4536C15.9968 39.2556 15.9816 39.0346 16.0387 38.8268L19.6869 27.3883C19.7945 27.1004 19.8306 26.7907 19.7922 26.4858C19.7538 26.1808 19.6419 25.8898 19.4663 25.6375C19.2907 25.3853 19.0565 25.1794 18.7838 25.0376C18.5112 24.8958 18.2082 24.8222 17.9008 24.8232H4.60028Z" stroke="#00CFFF" stroke-width="3.80015" stroke-linecap="round" stroke-linejoin="round"/>
</svg>
